# xmcd
#
# Track frame offsets: 
#        150
#        20549
#        69643
#        90105
#
# Disc length: 1263 seconds
#
# Revision: 1
# Processed by: cddbd v1.5.2PL0 Copyright (c) Steve Scherf et al.
# Submitted via: ExactAudioCopy v1.0b3
#
DISCID=2504ed04
DTITLE=安部菜々 (三宅麻理恵) - THE IDOLM@STER CINDERELLA MASTER 018 安部菜々
DYEAR=2013
DGENRE=Soundtrack
TTITLE0=メルヘンデビュー！
TTITLE1=ドラマ「目指せ! シンデレラNO. 1! -安部菜々編-」
TTITLE2=メルヘンデビュー! (オリジナル・カラオケ)
TTITLE3=ボーナス・トラック
EXTD=
EXTT0=
EXTT1=
EXTT2=
EXTT3=
PLAYORDER=
